<?xml version="1.0" encoding="UTF-8"?>
<svg xmlns="http://www.w3.org/2000/svg" xmlns:xlink="http://www.w3.org/1999/xlink" viewBox="0 0 231.62 320.31">
  <defs>
    <style>
      .cls-1 {
        fill: url(#_Áåçûìÿííûé_ãðàäèåíò_6-2);
      }

      .cls-1, .cls-2, .cls-3, .cls-4, .cls-5, .cls-6 {
        stroke-width: 0px;
      }

      .cls-2 {
        fill: url(#_Áåçûìÿííûé_ãðàäèåíò_6-3);
      }

      .cls-7 {
        isolation: isolate;
      }

      .cls-3 {
        fill: url(#_Áåçûìÿííûé_ãðàäèåíò_6);
      }

      .cls-4 {
        fill: url(#_Áåçûìÿííûé_ãðàäèåíò_6-4);
      }

      .cls-5 {
        fill: #000;
        mix-blend-mode: soft-light;
        opacity: .68;
      }

      .cls-6 {
        fill: url(#_Áåçûìÿííûé_ãðàäèåíò_6-5);
      }
    </style>
    <linearGradient id="_Áåçûìÿííûé_ãðàäèåíò_6" data-name="Áåçûìÿííûé ãðàäèåíò 6" x1="14.94" y1="40.33" x2="155.93" y2="271.81" gradientUnits="userSpaceOnUse">
      <stop offset="0" stop-color="#ffab67"/>
      <stop offset=".06" stop-color="#ff9e6c"/>
      <stop offset=".33" stop-color="#ff6683"/>
      <stop offset=".46" stop-color="#ff518d"/>
      <stop offset="1" stop-color="#5e309d"/>
    </linearGradient>
    <linearGradient id="_Áåçûìÿííûé_ãðàäèåíò_6-2" data-name="Áåçûìÿííûé ãðàäèåíò 6" x1="168.34" y1="7.57" x2="117.39" y2="62.68" xlink:href="#_Áåçûìÿííûé_ãðàäèåíò_6"/>
    <linearGradient id="_Áåçûìÿííûé_ãðàäèåíò_6-3" data-name="Áåçûìÿííûé ãðàäèåíò 6" x1="3.88" y1="135.66" x2="172.49" y2="351.89" xlink:href="#_Áåçûìÿííûé_ãðàäèåíò_6"/>
    <linearGradient id="_Áåçûìÿííûé_ãðàäèåíò_6-4" data-name="Áåçûìÿííûé ãðàäèåíò 6" x1="33.01" y1="90.97" x2="122.78" y2="186.96" xlink:href="#_Áåçûìÿííûé_ãðàäèåíò_6"/>
    <linearGradient id="_Áåçûìÿííûé_ãðàäèåíò_6-5" data-name="Áåçûìÿííûé ãðàäèåíò 6" x1="-69.12" y1="139.29" x2="136.27" y2="309.84" xlink:href="#_Áåçûìÿííûé_ãðàäèåíò_6"/>
  </defs>
  <g class="cls-7">
    <g id="OBJECTS">
      <g>
        <path class="cls-3" d="M210.84,279.02c-18.32,24.21-49.91,38.58-82.89,40.93-6.71.49-13.46.47-20.2-.07-25.99-2.06-51.37-11.84-70.27-30.45-17.12-16.79-28.03-39.31-33.28-62.72-1.59-7.08-3.59-18.81-4.08-33.87-.66-20.05,1.34-46,10.51-74.61,1.88-5.86,4.06-11.87,6.61-17.94,0-.02.02-.05.02-.07,1.67-4.01,3.47-8.05,5.47-12.13,0-.02.02-.05.02-.07,4.03-8.3,8.75-16.75,14.21-25.24.26-.4.4-.61.4-.61,2.11-3.28,4.36-6.57,6.73-9.87C61.9,27.48,90.65,5.32,121.12,3.21c-13.42,11.56-16.4,32.13-10.67,48.9,5.75,16.75,18.69,30.12,32.91,40.7,14.21,10.58,29.95,18.91,44.31,29.32,14.33,10.39,26.18,23.99,33.92,39.92,17.4,35.86,11.14,88.05-10.74,116.97Z"/>
        <path class="cls-5" d="M198.52,246.01c-10.9,20.66-33.1,35.51-57.85,41.4-5.03,1.21-10.17,2.03-15.34,2.46-19.99,1.67-40.48-2.6-57.15-14.37-15.09-10.62-26.18-26.36-33.08-43.48-2.09-5.18-5.07-13.84-7.32-25.21-3-15.15-4.71-35.09-1.31-57.97.69-4.69,1.6-9.52,2.79-14.45,0-.02.01-.04,0-.06.77-3.25,15.82-64.85,57.96-99.97-8.75,10.45.38,39.82,6.81,51.84,6.45,12,17.94,20.54,30.06,26.81,12.11,6.26,25.1,10.63,37.3,16.75,12.18,6.11,22.86,14.96,30.73,26.09,17.68,25.07,19.42,65.48,6.41,90.16Z"/>
        <path class="cls-1" d="M121.44,54.15c-6.36-11.93-5.43-27.52,2.32-38.63,7.75-11.11,21.93-17.21,35.15-15.11-13.4,10.21-19.83,27.5-21.87,44.35-1.29,10.71-.75,22.57,6.09,30.81-10.72-6.46-19.33-16.98-21.7-21.42Z"/>
        <path class="cls-2" d="M157.45,292.53c-7.48,11.31-17.87,20.52-29.51,27.42-6.71.49-13.46.47-20.2-.07-25.99-2.06-51.37-11.84-70.27-30.45-17.12-16.79-28.03-39.31-33.28-62.72-1.59-7.08-3.59-18.81-4.08-33.87-.66-20.05,1.34-46,10.51-74.61,4.53,5.54,9.5,10.7,14.57,15.74,12.29,12.31,21.91,22.94,40.23,33.07,17.92,9.92,37.48,16.54,55.87,25.59,18.41,9.05,36.14,22.17,43.79,41.19,7.67,19.05,3.68,41.59-7.62,58.71Z"/>
        <path class="cls-4" d="M17.23,100.29s20.04,48.36,92.36,75.72c0,0-74.48-46.67-72.23-113.83,0,0-14.57,23.32-20.14,38.11Z"/>
        <path class="cls-6" d="M107.75,319.88c-25.99-2.06-51.37-11.84-70.27-30.45-17.12-16.79-28.03-39.31-33.28-62.72-1.59-7.08-3.59-18.81-4.08-33.87,51.3,30.16,114.84,23.41,135.67,57.44,22.4,36.61-21.88,65.77-28.03,69.59Z"/>
      </g>
    </g>
  </g>
</svg>