<svg version="1.1" viewBox="0 0 1001.9 1008.9" xmlns="http://www.w3.org/2000/svg" xmlns:xlink="http://www.w3.org/1999/xlink"><defs><style>.cls-1{fill:#fff;}.cls-2{fill:url(#GradientFill_2);}.cls-3,.cls-5{fill:#3d3d3d;}.cls-4{fill:url(#GradientFill_2-2);}.cls-5{stroke:#3d3d3d;stroke-miterlimit:10;}.cls-6{fill:url(#GradientFill_2-3);}.cls-7{fill:#343433;}</style><linearGradient id="GradientFill_2" x1="-617.69" x2="1636.6" y1="553.63" y2="553.63" gradientUnits="userSpaceOnUse"><stop stop-color="#fff584" offset="0"/><stop stop-color="#bf933a" offset=".26"/><stop stop-color="#c79f47" offset=".46"/><stop stop-color="#fff8ad" offset=".75"/><stop stop-color="#c79f47" offset="1"/></linearGradient><linearGradient id="GradientFill_2-2" x1="-1082.3" x2="1138.7" y1="-296.7" y2="973.74" gradientTransform="translate(0,84.576)" xlink:href="#GradientFill_2"/><linearGradient id="GradientFill_2-3" x1="329.18" x2="672.72" y1="181.93" y2="181.93" xlink:href="#GradientFill_2"/><linearGradient id="linearGradient19" x1="-617.69" x2="1636.6" y1="553.63" y2="553.63" gradientUnits="userSpaceOnUse" xlink:href="#GradientFill_2"/></defs><title>Asset 3</title><g data-name="Layer 2"><path class="cls-1" d="m147.34 804.6c-53.015 6.6696-83.993 13.706-102.78 18.47a23.405 23.405 0 0 1-5.8145 0.73293c-11.849 0-21.548-8.8439-21.817-19.813l-16.93-210.59v-0.41533a20.546 20.546 0 0 1 17.102-19.789c14.17-2.9561 43.975-8.6973 89.612-14.878v-232.46l213.45-123.18a184.23 184.23 0 0 1-1.1727-20.766 181.91 181.91 0 0 1 363.82 0 184.23 184.23 0 0 1-1.1971 20.766l213.52 123.28v232.46c45.563 6.181 75.442 11.922 89.636 14.878a20.571 20.571 0 0 1 17.102 19.789v0.41532l-16.93 210.59a19.74 19.74 0 0 1-7.0849 14.487 22.867 22.867 0 0 1-14.658 5.3259 23.087 23.087 0 0 1-5.7901-0.73292c-18.787-4.764-49.765-11.8-102.8-18.47l-353.78 204.05z" fill="#fff" stroke-width="2.4431"/><polygon class="cls-2" points="500.95 110.07 116.81 331.85 116.81 775.41 500.95 997.19 885.08 775.41 885.08 331.85" fill="url(#linearGradient19)"/><polygon class="cls-3" points="500.95 133.47 137.08 343.55 137.08 763.71 500.95 973.78 864.82 763.71 864.82 343.55"/><path class="cls-4" d="m974.82 803.58c0 6.76-7.49 11.63-15 9.74-40.97-10.34-155.82-35.9-458.82-35.9s-417.95 25.56-458.94 35.94c-7.49 1.89-15-3-15-9.74l-16.91-210.52c0-4.68 3.69-8.76 9-9.86 38.51-8.07 201.47-38.26 481.85-38.26s443.29 30.19 481.85 38.26c5.26 1.1 9 5.18 9 9.86z" fill="url(#GradientFill_2-2)"/><path class="cls-5" d="m150.85 689.04c-1.92-11.68-4.16-25.82-6-40l-0.43 0.06c-1.46 12.84-3.76 27.26-6.07 39.18l-7 39.6-17.23 2.18-15.23-36.48c-4.64-11-9.74-24.52-13.67-37h-0.29c1.09 13.26 2.57 28.37 3.39 40.63l3 37.3-20.42 2.59-6.2-98.35 29.4-3.73 13.7 31.37c4.48 10.92 9.06 22.7 12.69 33.86h0.43c1.32-11.65 3-25 4.82-36.23l6.31-33.77 28.82-3.67 17.75 96.94-21.62 2.7z"/><path class="cls-5" d="m208.81 622.42 4.53 56.47c1.35 16.88 8.44 25 19.8 24 11.64-0.93 17.39-9.59 16-26.91l-4.53-56.4 22.12-1.78 4.41 55c2.43 30.27-11.69 45.9-37.31 48-24.74 2-40.39-10.53-42.9-41.82l-4.39-54.72z"/><path class="cls-5" d="m292.7 691.92a56.73 56.73 0 0 0 24.95 4.88c10.21-0.51 15.39-5 15.07-11.42-0.31-6.13-5.15-9.39-17.18-13-16.61-4.87-27.71-13.37-28.43-27.66-0.84-16.77 12.51-30.3 35.7-31.47 11.08-0.56 19.36 1.37 25.32 3.7l-4.05 18.18a46.81 46.81 0 0 0-20.8-3.63c-9.62 0.48-14.07 5.09-13.81 10.2 0.32 6.26 6 8.76 18.92 12.93 17.68 5.55 26.3 14.18 27 28 0.83 16.48-11.15 31.11-38.13 32.47-11.23 0.56-22.45-1.8-28.15-4.58z"/><path class="cls-5" d="m388.15 630.95-26.42 0.7-0.5-18.68 75.6-2 0.5 18.68-26.85 0.72 2.13 79.69-22.33 0.6z"/><path class="cls-5" d="m474.6 663.37 0.18 14.74-38.25 0.45-0.18-14.74z"/><path class="cls-5" d="m501 708.82-22.31-98.64 23.8 0.25 7 40.66c2.07 11.7 4 24.43 5.49 34.37h0.29c1.71-10.64 4.17-22.44 6.78-34.53l8.73-40.21 23.65 0.24 7.46 41.54c2.11 11.56 3.6 22.08 4.95 33.08h0.29c1.57-10.94 3.88-22.45 6-34.11l8.44-40.21 22.63 0.23-26.36 98.09-24.09-0.25-7.89-42.42c-1.8-10-3.31-19.16-4.36-30.42h-0.29c-1.87 11.08-3.57 20.41-6 30.31l-9.78 42.24z"/><path class="cls-5" d="m630.08 685.95-8 25-23.08-0.95 34-97.14 29.18 1.15 26.57 99.57-23.93-1-6.59-25.54zm25.6-15.64-5.3-21.11c-1.52-5.9-3-13.27-4.21-19.16h-0.29c-1.69 5.77-3.44 13.16-5.27 18.78l-6.61 20.62z"/><path class="cls-5" d="m713.16 635.37-26.37-1.67 1.21-18.65 75.48 4.79-1.18 18.65-26.81-1.7-5.05 79.55-22.3-1.41z"/><path class="cls-5" d="m836.32 722.45c-4.26 1.66-13.62 3-25.54 1.91-33.88-3.11-49.39-25.78-46.78-53.71 3.07-33.44 28.62-49.86 58.28-47.14 11.48 1.06 20 4.19 23.73 6.58l-6.12 17.18a48.12 48.12 0 0 0-18.28-5.34c-17.59-1.62-32.23 7.74-34.23 29.55-1.8 19.62 8.69 33.05 28.46 34.87a55.54 55.54 0 0 0 18.76-1.51z"/><path class="cls-5" d="m884.78 632.01-5 37.49 36.33 4.85 5-37.48 22 2.94-13 97.54-22-2.94 5.41-40.83-36.32-4.86-5.46 40.86-22.14-3 13-97.54z"/><path class="cls-6" d="m672.72 181.92a171.77 171.77 0 1 1-171.72-171.76 171.77 171.77 0 0 1 171.72 171.76z" fill="url(#GradientFill_2-3)"/><path class="cls-7" d="m639.3 181.92a138.35 138.35 0 1 1-138.3-138.34 138.36 138.36 0 0 1 138.3 138.34z"/><path class="cls-1" d="m418.87 224.73c-11-11-20.49-19.77-28.76-27.33l23.19-23.19 13.13 11 0.54-0.53c-2-9.53-2.34-25.71 12.58-40.64 11.51-11.5 26.25-14.38 39.2-9l0.35-0.36a54.38 54.38 0 0 1 0.72-22.3 47.38 47.38 0 0 1 12.41-21c16.9-16.91 41.54-17.8 67.78 8.45l51.78 51.78-26.6 26.6-47.65-47.64c-12.77-12.77-24.27-16-33.08-7.2-6.48 6.48-6.48 15.11-3.24 22.3a39.89 39.89 0 0 0 5.94 7.74l51.42 51.42-26.58 26.56-49.3-49.28c-11-11-22.47-14.55-31.28-5.74-7 7-5.76 16.54-3.06 22.47a26.15 26.15 0 0 0 5.93 8.09l51.06 51.07-26.6 26.61z"/><g id="metacritic" transform="matrix(2.4431 0 0 2.4431 .00020986 -.00056989)" fill="#fff"><path class="cls-1" d="m83 178.86c0-3.29-0.11-6.1-0.21-8.43h6.91l0.38 3.57h0.16a9.16 9.16 0 0 1 8-4.16 7.5 7.5 0 0 1 7.24 4.48h0.11a11.71 11.71 0 0 1 3.4-3.18 9.48 9.48 0 0 1 5-1.3c5.08 0 8.92 3.56 8.92 11.45v15.56h-8v-14.37c0-3.84-1.24-6-3.89-6a4 4 0 0 0-3.78 2.86 6.79 6.79 0 0 0-0.32 2.11v15.45h-8v-14.8c0-3.35-1.19-5.62-3.78-5.62a4.19 4.19 0 0 0-3.84 3 5.46 5.46 0 0 0-0.32 2v15.4h-7.98z"/><path class="cls-1" d="m135.77 186.26c0.27 3.41 3.62 5 7.45 5a23.4 23.4 0 0 0 7.3-1.08l1.08 5.56a26.09 26.09 0 0 1-9.56 1.62c-9 0-14.11-5.18-14.11-13.45 0-6.7 4.16-14.1 13.35-14.1 8.53 0 11.78 6.64 11.78 13.18a20.31 20.31 0 0 1-0.27 3.24zm9.67-5.62c0-2-0.87-5.34-4.65-5.34-3.46 0-4.86 3.13-5.08 5.34z"/><path class="cls-1" d="m168.24 162.87v7.56h5.89v6h-5.89v9.57c0 3.18 0.76 4.64 3.24 4.64a14.2 14.2 0 0 0 2.43-0.21l0.06 6.21a16.2 16.2 0 0 1-5.35 0.7 8.53 8.53 0 0 1-6.16-2.27c-1.51-1.56-2.27-4.1-2.27-7.83v-10.76h-3.51v-6h3.51v-5.72z"/><path class="cls-1" d="m196.06 196.85-0.48-2.65h-0.17a9.5 9.5 0 0 1-7.56 3.25c-5.35 0-8.54-3.89-8.54-8.11 0-6.86 6.16-10.15 15.51-10.1v-0.38c0-1.4-0.76-3.4-4.81-3.4a14.86 14.86 0 0 0-7.29 2l-1.51-5.3a21.84 21.84 0 0 1 10.26-2.32c8.81 0 11.62 5.19 11.62 11.4v9.18a41.12 41.12 0 0 0 0.37 6.43zm-1-12.48c-4.32-0.05-7.67 1-7.67 4.16a3 3 0 0 0 3.24 3.14 4.5 4.5 0 0 0 4.27-3 5.78 5.78 0 0 0 0.16-1.4z"/><path class="cls-1" d="m228.32 196.2a20 20 0 0 1-7.35 1.19c-8.54 0-14-5.18-14-13.5 0-7.73 5.29-14 15.13-14a19 19 0 0 1 6.26 1l-1.29 6.1a11.35 11.35 0 0 0-4.6-0.81c-4.32 0-7.13 3.08-7.07 7.4 0 4.86 3.24 7.4 7.24 7.4a12.64 12.64 0 0 0 4.7-0.81z"/><path class="cls-1" d="m233.94 179.13c0-3.89-0.11-6.43-0.22-8.7h7.08l0.27 4.87h0.22a7.76 7.76 0 0 1 7.13-5.46 8.39 8.39 0 0 1 1.73 0.11v7.72a11.77 11.77 0 0 0-2.22-0.21c-3 0-5.08 1.62-5.62 4.16a9.45 9.45 0 0 0-0.16 1.83v13.4h-8.21z"/><path class="cls-1" d="m264 163.09a4.12 4.12 0 0 1-4.43 4.1 4.13 4.13 0 1 1 0-8.26 4.12 4.12 0 0 1 4.43 4.16zm-8.48 33.76v-26.42h8.21v26.42z"/><path class="cls-1" d="m280.62 162.87v7.56h5.89v6h-5.89v9.57c0 3.18 0.75 4.64 3.24 4.64a14.3 14.3 0 0 0 2.43-0.21v6.21a16.16 16.16 0 0 1-5.35 0.7 8.52 8.52 0 0 1-6.15-2.27c-1.52-1.56-2.27-4.1-2.27-7.83v-10.76h-3.51v-6h3.51v-5.72z"/><path class="cls-1" d="m300.82 163.09a4.12 4.12 0 0 1-4.43 4.1 4.1301 4.1301 0 1 1 0.06-8.26 4.11 4.11 0 0 1 4.37 4.16zm-8.48 33.76v-26.42h8.21v26.42z"/><path class="cls-1" d="m328.05 196.2a20 20 0 0 1-7.34 1.19c-8.54 0-14-5.18-14-13.5 0-7.73 5.3-14 15.13-14a19 19 0 0 1 6.27 1l-1.3 6.1a11.26 11.26 0 0 0-4.59-0.81c-4.32 0-7.13 3.08-7.08 7.4 0 4.86 3.24 7.4 7.24 7.4a12.6 12.6 0 0 0 4.7-0.81z"/></g></g></svg>
